<svg width="465" height="281" viewBox="0 0 465 281" fill="none" xmlns="http://www.w3.org/2000/svg">
<g opacity="0.5" clip-path="url(#clip0_107_4551)">
<path d="M1.40081 281C1.40081 281 -6.34711 198.554 27.6835 168.123C59.7247 145.258 86.3772 131.371 140.695 129.621C195.012 127.871 224.791 127.862 257.211 91.9986C289.63 56.1348 333.461 1.94348 382.478 0.123035C429.787 -1.63585 458.694 13.2443 485.848 118.25C513.003 223.256 484.968 277.5 484.087 278.37C483.48 278.995 1.40081 281 1.40081 281Z" fill="#DBDADE"/>
<path d="M221.885 212.482C224.87 176.425 213.749 123.659 226.728 116.315C239.539 109.077 243.906 106.712 257.202 91.9986C289.613 56.126 333.417 1.93469 382.478 0.123035C429.787 -1.63585 458.694 13.2443 485.848 118.25C499.425 170.753 498.624 198.49 497.294 215.068C496.572 224.188 495.851 236.06 495.41 236.491C494.803 237.116 219.411 242.428 221.885 212.482Z" fill="#4B465C"/>
<path d="M112.167 96.088L108.275 279.241C108.275 280.551 111.797 280.121 112.678 280.121H117.961L117.151 96.387L148.619 97.2664L134.954 20.1656C134.613 18.2306 133.599 16.4778 132.092 15.2152C130.584 13.9527 128.68 13.261 126.713 13.2619H105C102.485 13.255 100.048 14.1325 98.1161 15.7406C96.1842 17.3486 94.8806 19.5845 94.4339 22.0564L81.1296 95.5164L112.167 96.088Z" fill="#4B465C"/>
<path d="M108.275 279.241L112.167 96.088L117.15 96.387L117.961 280.121H112.678C111.797 280.121 108.275 280.551 108.275 279.241Z" fill="#008984"/>
<path d="M57.9815 236.957C57.9815 236.957 57.7879 244.134 59.0029 244.934C59.5246 245.342 60.1236 245.642 60.7639 245.813L66.8129 278.414C66.8129 278.414 84.546 281.633 93.4126 278.01L99.4616 245.804L101.478 244.995L102.288 236.948C102.288 236.948 80.5486 229.711 57.9815 236.957Z" fill="#4B465C"/>
<path d="M60.0151 245.602C60.0151 245.602 83.7885 247.423 86.5973 246.622C89.4061 245.822 88.6136 239.376 88.6136 239.376L100.298 238.171C100.298 238.171 100.298 245.013 99.4877 245.822C98.595 246.893 97.911 248.122 97.4714 249.445C97.4714 249.85 92.6375 278.467 92.6375 278.467C92.6375 278.467 84.9772 279.672 83.7709 279.672C82.5647 279.672 86.9935 255.971 86.9935 254.309C86.9935 252.646 86.9935 249.48 85.7872 249.48C84.5809 249.48 61.2743 250.175 61.1334 247.581C60.9438 246.834 60.5577 246.15 60.0151 245.602Z" fill="#008984"/>
<path d="M69.3749 238.461C69.3749 238.461 62.7449 233.809 59.2229 233.387C55.7009 232.965 51.6154 232.507 48.0934 231.962C44.5715 231.417 40.081 229.843 40.169 227.785C40.257 225.727 40.6796 224.742 42.7488 223.519C44.4934 222.385 46.47 221.655 48.5337 221.382C50.0834 221.242 65.985 225.366 72.6152 235.225L75.2566 238.461H69.3749Z" fill="#4B465C"/>
<path d="M46.4204 226.958C46.4204 226.958 52.5134 226.879 55.8505 227.961C58.4595 228.935 60.9884 230.111 63.414 231.479L73.3899 238.417" fill="#008984"/>
<path d="M46.4204 226.958C46.4204 226.958 52.5134 226.879 55.8505 227.961C58.4595 228.935 60.9884 230.111 63.414 231.479L73.3899 238.417" stroke="white" stroke-width="0.379514" stroke-miterlimit="10" stroke-linecap="round"/>
<path d="M76.3573 238.189C76.3573 238.189 68.6442 227.723 65.6417 224.777C62.6392 221.831 59.1261 218.463 56.2293 215.385C53.3324 212.306 49.6783 207.892 51.2192 206.08C52.7601 204.268 53.8607 203.037 56.6695 203.442C58.8655 203.676 60.9685 204.453 62.7889 205.702C64.3386 206.704 78.3472 220.046 80.3988 235.374L82.4151 238.479L76.3573 238.189Z" fill="#4B465C"/>
<path d="M58.2368 209.598C58.2368 209.598 64.2418 213.186 66.6015 216.633C68.8291 219.852 72.3599 225.612 72.3599 225.612L76.3661 236.597" stroke="white" stroke-width="0.379514" stroke-miterlimit="10" stroke-linecap="round"/>
<path d="M80.2138 238.707C80.2138 238.707 71.2063 219.175 69.5246 215.314C67.8428 211.453 60.9662 205.64 59.443 201.7C57.9197 197.76 56.9512 194.893 58.5625 192.73C60.1738 190.566 64.312 188.772 66.9535 190.092C69.4453 191.305 72.6856 194.999 74.0768 196.872C75.1862 198.35 82.5558 224.882 81.9483 231.003L83.3571 238.839L80.2138 238.707Z" fill="#008984"/>
<path d="M64.3474 197.285C64.3474 197.285 69.5159 203.934 71.0832 207.839C72.8442 212.236 74.6052 220.617 74.3762 219.271L79.756 237.414" stroke="white" stroke-width="0.379514" stroke-miterlimit="10" stroke-linecap="round"/>
<path d="M75.2743 238.558C75.2743 238.558 67.3499 229.526 63.4845 227.776C59.6192 226.026 55.2255 224.047 51.4481 222.165C47.6708 220.283 43.1363 217.091 43.9024 215.174C44.6684 213.256 45.452 212.482 48.1815 212.122C50.5663 211.719 53.0069 211.785 55.3664 212.315C57.1274 212.773 73.6807 222.763 77.9334 234.627L79.8969 238.716L75.2743 238.558Z" fill="#008984"/>
<path d="M51.2104 216.809C51.2104 216.809 58.0695 219.061 61.477 221.365C64.0718 223.261 66.5313 225.336 68.8379 227.574L76.4454 238.637" stroke="white" stroke-width="0.379514" stroke-miterlimit="10" stroke-linecap="round"/>
<path d="M96.0011 238.76C96.0011 238.76 103.177 234.363 106.99 233.915C110.802 233.466 115.213 233.088 119.035 232.551C122.856 232.015 127.708 230.529 127.611 228.559C127.514 226.589 127.065 225.648 124.82 224.478C122.892 223.383 120.763 222.688 118.559 222.438C116.878 222.306 99.6726 226.237 92.4966 235.629L89.5999 238.725L96.0011 238.76Z" fill="#4B465C"/>
<path d="M120.822 227.785C120.822 227.785 114.236 227.706 110.617 228.743C107.811 229.66 105.074 230.777 102.429 232.085L92.8577 238.505" fill="#008984"/>
<path d="M120.822 227.785C120.822 227.785 114.236 227.706 110.617 228.743C107.811 229.66 105.074 230.777 102.429 232.085L92.8577 238.505" stroke="white" stroke-width="0.379514" stroke-miterlimit="10" stroke-linecap="round"/>
<path d="M88.4375 238.505C88.4375 238.505 96.7758 228.515 100.034 225.7C103.291 222.886 107.078 219.667 110.221 216.73C113.364 213.793 117.309 209.58 115.636 207.839C113.963 206.098 112.783 204.928 109.737 205.297C107.395 205.508 105.132 206.245 103.115 207.452C101.434 208.402 86.2804 221.154 84.0615 235.788L81.8867 238.751L88.4375 238.505Z" fill="#4B465C"/>
<path d="M108.055 211.216C108.055 211.216 101.557 214.637 99.0034 217.9C96.5909 220.978 92.7784 226.474 92.7784 226.474L88.4375 236.957" stroke="white" stroke-width="0.379514" stroke-miterlimit="10" stroke-linecap="round"/>
<path d="M84.2817 239.007C84.2817 239.007 94.0288 220.354 95.8426 216.66C97.6564 212.966 105.105 207.443 106.752 203.662C108.398 199.88 109.446 197.154 107.72 195.096C105.995 193.038 101.495 191.314 98.6426 192.545C95.9483 193.706 92.4792 197.233 90.9383 199.018C89.7408 200.434 81.7635 225.762 82.4151 231.619L80.8918 239.103L84.2817 239.007Z" fill="#008984"/>
<path d="M83.3398 238.769C83.3398 238.769 84.1234 220.564 85.9812 214.655C87.2403 210.741 88.473 204.101 90.1195 200.364C91.766 196.626 89.239 191.71 87.5484 189.643C85.8579 187.576 81.3851 187.972 78.497 189.195C75.8027 190.356 74.253 194.111 73.9096 196.116C73.6014 197.945 80.073 219.905 79.3862 227.934L79.941 238.874L83.3398 238.769Z" fill="#4B465C"/>
<path d="M101.442 199.475C101.442 199.475 95.8513 205.825 94.152 209.545C92.2325 213.758 90.3218 221.752 90.63 220.433L84.2993 238.197" stroke="white" stroke-width="0.379514" stroke-miterlimit="10" stroke-linecap="round"/>
<path d="M89.6175 238.866C89.6175 238.866 98.2375 230.238 102.376 228.567C106.514 226.896 111.313 225.049 115.398 223.211C119.484 221.373 124.388 218.366 123.56 216.536C122.733 214.707 121.879 213.968 118.929 213.625C116.346 213.241 113.716 213.303 111.154 213.81C109.217 214.25 91.3432 223.783 86.7382 235.119L84.6162 239.024L89.6175 238.866Z" fill="#008984"/>
<path d="M115.662 218.085C115.662 218.085 108.24 220.23 104.559 222.429C101.772 224.223 99.1099 226.203 96.5909 228.357L88.1909 237.661" stroke="white" stroke-width="0.379514" stroke-miterlimit="10" stroke-linecap="round"/>
<path d="M81.561 193.082C81.561 193.082 83.0578 208.674 82.1861 212.869C81.8251 214.628 82.0013 225.595 82.0013 225.595L81.6402 237.74" stroke="white" stroke-width="0.379514" stroke-miterlimit="10" stroke-linecap="round"/>
<path d="M81.8957 91.4094L147.237 92.6142L148.575 97.2489L81.1208 95.4988L81.8957 91.4094Z" fill="#888888"/>
<path d="M403.161 102.745L402.624 230.977L484.158 231.197C484.158 231.197 484.748 163.665 481.516 98.9902L403.328 97.8206L403.161 102.745Z" fill="#008984"/>
<path d="M326.444 119.323L324.278 231.276H393.969L393.476 119.323H326.444Z" fill="#008984"/>
<path d="M225.24 185.017L325.405 185.536L324.278 231.276L225.619 231.241L225.24 185.017Z" fill="#008984"/>
<path d="M216.99 120.484L217.236 231.514C217.236 231.514 217.844 238.496 224.527 238.795C231.21 239.094 494.618 239.209 494.618 239.209C494.618 239.209 496.969 231.848 496.062 231.54C495.155 231.232 225.619 231.241 225.619 231.241C225.619 231.241 225.698 227.31 225.698 224.795C225.698 221.998 225.548 116.984 225.548 116.984C222.819 118.433 219.952 119.605 216.99 120.484Z" fill="white"/>
<path d="M222.801 131.512L489.317 133.104L490.726 138.873L222.801 140.157V131.512Z" fill="white"/>
<path d="M298.004 45.0539V231.47L305.039 232.015V40.1906L298.004 45.0539Z" fill="white"/>
<path d="M305.039 40.1905L457.144 41.1139L452.768 33.2429L313.694 33.1725L305.039 40.1905Z" fill="white"/>
<path d="M330.679 76.9074C339.218 76.9074 346.14 69.9934 346.14 61.4644C346.14 52.9354 339.218 46.0214 330.679 46.0214C322.14 46.0214 315.218 52.9354 315.218 61.4644C315.218 69.9934 322.14 76.9074 330.679 76.9074Z" fill="#F4F4F4"/>
<path d="M345.727 76.5556C351.324 76.5556 355.861 72.0237 355.861 66.4332C355.861 60.8428 351.324 56.3108 345.727 56.3108C340.129 56.3108 335.592 60.8428 335.592 66.4332C335.592 72.0237 340.129 76.5556 345.727 76.5556Z" fill="#F4F4F4"/>
<path d="M428.44 104.129C437.14 104.129 444.192 97.0846 444.192 88.3953C444.192 79.7061 437.14 72.6621 428.44 72.6621C419.74 72.6621 412.688 79.7061 412.688 88.3953C412.688 97.0846 419.74 104.129 428.44 104.129Z" fill="#F4F4F4"/>
<path d="M412.559 100.497C416.604 100.497 419.882 97.4387 419.882 93.6667C419.882 89.8946 416.604 86.8368 412.559 86.8368C408.514 86.8368 405.235 89.8946 405.235 93.6667C405.235 97.4387 408.514 100.497 412.559 100.497Z" fill="#F4F4F4"/>
<path d="M425.288 7.54556L425.129 231.47L431.627 230.933L432.64 11.9164L425.288 7.54556Z" fill="white"/>
</g>
<defs>
<clipPath id="clip0_107_4551">
<rect width="498" height="281" fill="white"/>
</clipPath>
</defs>
</svg>
