<svg width="109" height="27" viewBox="0 0 109 27" fill="none" xmlns="http://www.w3.org/2000/svg">
<path d="M95.8813 16.8374V9.23051C95.9037 8.20824 96.4064 7.23608 97.3894 6.31403C98.4842 5.29176 99.7912 4.7706 101.31 4.75056H103.254V7.87751H101.31C100.506 7.87751 99.9141 8.20824 99.5343 8.86971C99.4226 9.07016 99.3667 9.24053 99.3667 9.38085V16.7773C99.3667 17.2183 99.6572 17.6091 100.238 17.9499C100.596 18.1704 100.975 18.2806 101.378 18.2806H103.254V21.3775H101.378C99.3444 21.3775 97.7804 20.5857 96.6857 19.0022C96.1495 18.2205 95.8813 17.4989 95.8813 16.8374ZM104.93 21.3775V0H108.616V21.3775H104.93Z" fill="#008984"/>
<path d="M80.1973 21.3773V9.23031C80.1973 8.26817 80.6888 7.31606 81.6718 6.37396C82.8783 5.25147 84.3753 4.6802 86.1626 4.66016V7.84724C85.1349 7.84724 84.4199 8.20804 84.0178 8.92964C83.8837 9.17018 83.8167 9.40069 83.8167 9.62118V21.3773H80.1973ZM87.6372 7.84724V4.66016C89.7597 4.66016 91.4242 5.43187 92.6307 6.9753C93.2786 7.77708 93.6026 8.52875 93.6026 9.23031V21.3773H89.9831V9.62118C89.9831 9.01984 89.6592 8.53878 89.0113 8.17797C88.6091 7.95748 88.1511 7.84724 87.6372 7.84724Z" fill="#008984"/>
<path d="M64.1443 17.4989V16.0256C64.1666 14.7227 64.7587 13.7606 65.9205 13.1392C66.2333 12.9788 67.5515 12.578 69.8751 11.9365C72.3327 11.255 73.5615 10.6537 73.5615 10.1325V9.50112C73.5615 9.24054 73.5057 8.98998 73.3939 8.74945C73.0588 8.0078 72.3885 7.63698 71.3832 7.63698V4.69043C72.9918 4.69043 74.3323 5.16148 75.4047 6.10357C76.4772 7.04566 77.0134 8.11805 77.0134 9.32072V17.4087C77.0357 18.01 77.3373 18.3307 77.9182 18.3708V21.3775C76.7341 21.3775 75.751 21.0368 74.9691 20.3552C74.0754 21.0167 72.8912 21.3575 71.4167 21.3775V18.4009C71.6401 18.4009 71.8523 18.3809 72.0534 18.3408C73.0588 18.1403 73.5615 17.559 73.5615 16.5969V13.6203C73.0253 13.8809 72.0869 14.1715 70.7464 14.4922C68.825 14.9532 67.7749 15.2439 67.5962 15.3641C67.3504 15.5245 67.2163 15.8051 67.194 16.206V16.8374C67.2163 17.8597 68.0542 18.3809 69.7075 18.4009V21.3775C68.2552 21.3775 67.0041 21.0368 65.954 20.3552C64.7475 19.5735 64.1443 18.6214 64.1443 17.4989ZM64.4124 8.86972C64.4124 7.88753 64.8481 6.99555 65.7194 6.19377C66.8365 5.19154 68.1659 4.69043 69.7075 4.69043V7.63698C69.4617 7.63698 69.216 7.67707 68.9702 7.75724C67.9871 8.05791 67.4956 8.77952 67.4956 9.92206L64.4124 8.86972Z" fill="#008984"/>
<path d="M57.9443 21.3775V0H61.7648V21.3775H57.9443Z" fill="#008984"/>
<path d="M50.9736 2.40529C50.9736 1.66364 51.3423 1.13246 52.0796 0.811749C52.37 0.691481 52.6605 0.631348 52.9509 0.631348C53.7999 0.631348 54.4032 0.962083 54.7606 1.62355C54.8947 1.88413 54.9617 2.14471 54.9617 2.40529C54.9617 3.12689 54.5819 3.64805 53.8223 3.96876C53.5318 4.08903 53.2414 4.14917 52.9509 4.14917C52.1466 4.14917 51.5545 3.82845 51.1747 3.18703C51.0407 2.94649 50.9736 2.68591 50.9736 2.40529ZM51.2082 21.3775V5.35184H54.7941V21.3775H51.2082Z" fill="#008984"/>
<path d="M35.0884 27.0002L35.9262 24.0536H42.3943C43.4443 24.0135 44.1593 23.6227 44.5391 22.881C44.6285 22.7206 44.6732 22.5803 44.6732 22.4601V20.6561C43.7795 21.0169 43.0422 21.2073 42.4613 21.2273V18.2507C43.4443 18.2507 44.1258 17.91 44.5056 17.2284C44.6173 17.028 44.6732 16.8376 44.6732 16.6572V9.14047C44.6732 8.59927 44.3269 8.15829 43.6343 7.81753C43.2544 7.63713 42.8635 7.54693 42.4613 7.54693V4.57031C43.2433 4.57031 43.9806 4.76074 44.6732 5.14158V4.57031H48.125V22.4601C48.125 23.322 47.6894 24.224 46.818 25.1661C45.6786 26.3688 44.2822 26.9801 42.6289 27.0002H35.0884ZM35.4235 16.7173V9.0202C35.4459 8.07811 35.915 7.14604 36.8311 6.22399C37.9482 5.14158 39.3446 4.59036 41.0202 4.57031V7.54693C40.0595 7.54693 39.3781 7.90773 38.9759 8.62933C38.8642 8.80973 38.8083 8.97009 38.8083 9.1104V16.6872C38.8083 17.2084 39.1323 17.6293 39.7802 17.95C40.1601 18.1304 40.5734 18.2206 41.0202 18.2206V21.2273C38.9424 21.2073 37.3449 20.4155 36.2278 18.852C35.6916 18.0904 35.4235 17.3788 35.4235 16.7173Z" fill="#008984"/>
<path d="M28.7544 2.40529C28.7544 1.66364 29.123 1.13246 29.8603 0.811749C30.1508 0.691481 30.4412 0.631348 30.7317 0.631348C31.5807 0.631348 32.1839 0.962083 32.5414 1.62355C32.6754 1.88413 32.7425 2.14471 32.7425 2.40529C32.7425 3.12689 32.3627 3.64805 31.603 3.96876C31.3126 4.08903 31.0221 4.14917 30.7317 4.14917C29.9274 4.14917 29.3353 3.82845 28.9555 3.18703C28.8214 2.94649 28.7544 2.68591 28.7544 2.40529ZM28.989 21.3775V5.35184H32.5749V21.3775H28.989Z" fill="#008984"/>
<path d="M17.6951 21.3776V4.72057H21.3145V6.79518C21.9401 5.91322 22.8785 5.28182 24.1296 4.90097C24.7105 4.72057 25.2802 4.63037 25.8388 4.63037H26.7101L25.8723 7.78739C24.5541 7.80743 23.4035 8.3787 22.4204 9.50119C21.6831 10.3631 21.3145 11.2551 21.3145 12.1771V21.3776H17.6951Z" fill="#008984"/>
<path d="M0 15.5143V5.62227C0 4.55991 0.502699 3.4775 1.5081 2.37505C2.84863 0.931846 4.54663 0.20022 6.60211 0.180176V3.51759C5.44032 3.53764 4.56897 4.09888 3.98808 5.20133C3.80934 5.56214 3.71997 5.8628 3.71997 6.10334V15.5143C3.71997 16.5967 4.34555 17.3984 5.59671 17.9196C5.97653 18.08 6.30049 18.1601 6.5686 18.1601V21.5276C5.29509 21.5276 4.02159 21.1167 2.74809 20.2949C0.938371 19.0922 0.0223422 17.4987 0 15.5143ZM8.41183 21.5276V18.1601C8.99272 18.1601 9.59596 17.9196 10.2215 17.4385C10.8918 16.8973 11.2381 16.2559 11.2605 15.5143V6.10334C11.2605 5.502 10.97 4.92071 10.3891 4.35946C9.83055 3.81826 9.17146 3.53764 8.41183 3.51759V0.180176C10.6684 0.180176 12.4781 1.05211 13.841 2.79599C14.6229 3.79822 15.0139 4.74031 15.0139 5.62227V15.5143C15.0139 17.7392 13.908 19.443 11.6961 20.6256C10.5343 21.2269 9.43957 21.5276 8.41183 21.5276Z" fill="#008984"/>
</svg>
